<?xml version="1.0" standalone="no"?>
<!DOCTYPE svg PUBLIC "-//W3C//DTD SVG 20010904//EN"
 "http://www.w3.org/TR/2001/REC-SVG-20010904/DTD/svg10.dtd">
<svg version="1.0" xmlns="http://www.w3.org/2000/svg"
 width="96.000000pt" height="96.000000pt" viewBox="0 0 96.000000 96.000000"
 preserveAspectRatio="xMidYMid meet">

<g transform="translate(0.000000,96.000000) scale(0.100000,-0.100000)"
fill="#000000" stroke="none">
<path d="M246 805 c-3 -10 -19 -15 -42 -15 -31 0 -37 -4 -47 -30 -7 -18 -19
-30 -29 -30 -9 0 -22 -9 -28 -19 -14 -26 -14 -496 0 -522 10 -17 23 -19 159
-19 123 0 150 -3 155 -15 8 -21 124 -21 132 0 5 12 32 15 155 15 136 0 149 2
159 19 6 12 10 114 10 261 0 246 -5 280 -38 280 -10 0 -22 12 -29 30 l-11 30
-130 0 c-116 0 -132 -2 -156 -21 l-26 -20 -26 20 c-15 12 -41 21 -61 21 -21 0
-36 6 -39 15 -4 10 -21 15 -54 15 -33 0 -50 -5 -54 -15z m84 -70 l0 -65 -30 0
-30 0 0 65 0 65 30 0 30 0 0 -65z m-90 -9 c0 -69 6 -76 60 -76 54 0 60 7 60
76 0 41 2 44 26 44 15 0 38 -12 55 -29 l29 -29 0 -212 c0 -199 -1 -212 -17
-204 -10 5 -75 10 -145 12 l-128 3 0 230 0 229 30 0 c29 0 30 -2 30 -44z m538
-188 l2 -227 -127 -3 c-71 -2 -136 -7 -145 -12 -17 -8 -18 5 -18 204 l0 212
30 29 29 30 113 -3 113 -3 3 -227z m-626 -65 l3 -238 143 -5 c138 -5 144 -6
163 -30 l19 -25 19 25 c19 24 25 25 163 30 l143 5 3 238 c2 184 5 238 15 234
9 -3 12 -65 12 -258 l0 -254 -152 -3 c-127 -2 -153 -5 -153 -17 0 -11 -13 -15
-50 -15 -37 0 -50 4 -50 15 0 12 -26 15 -152 17 l-153 3 -3 245 c-2 247 -1
270 18 270 6 0 11 -86 12 -237z m279 -203 l24 -19 -137 -1 c-131 0 -138 1
-138 20 0 19 7 20 114 20 98 0 117 -3 137 -20z m349 0 c0 -19 -7 -20 -137 -20
l-138 1 24 19 c20 17 39 20 137 20 107 0 114 -1 114 -20z"/>
<path d="M240 600 c0 -6 32 -10 75 -10 43 0 75 4 75 10 0 6 -32 10 -75 10 -43
0 -75 -4 -75 -10z"/>
<path d="M240 540 c0 -6 32 -10 75 -10 43 0 75 4 75 10 0 6 -32 10 -75 10 -43
0 -75 -4 -75 -10z"/>
<path d="M570 660 c0 -6 32 -10 75 -10 43 0 75 4 75 10 0 6 -32 10 -75 10 -43
0 -75 -4 -75 -10z"/>
<path d="M570 600 c0 -6 32 -10 75 -10 43 0 75 4 75 10 0 6 -32 10 -75 10 -43
0 -75 -4 -75 -10z"/>
<path d="M570 540 c0 -6 32 -10 75 -10 43 0 75 4 75 10 0 6 -32 10 -75 10 -43
0 -75 -4 -75 -10z"/>
</g>
</svg>
